<svg xmlns="http://www.w3.org/2000/svg" width="1280" height="320" viewBox="0 0 1280 320">
  <defs>
    <linearGradient id="bg-wz" x1="0%" y1="0%" x2="100%" y2="100%">
      <stop offset="0%" style="stop-color:#04111a"/>
      <stop offset="100%" style="stop-color:#071520"/>
    </linearGradient>
    <linearGradient id="accent-wz" x1="0%" y1="0%" x2="100%" y2="0%">
      <stop offset="0%" style="stop-color:#06b6d4"/>
      <stop offset="100%" style="stop-color:#22c55e"/>
    </linearGradient>
    <pattern id="dots-wz" width="28" height="28" patternUnits="userSpaceOnUse">
      <circle cx="1" cy="1" r="1" fill="#0d2535" opacity="0.9"/>
    </pattern>
    <filter id="glow-wz">
      <feGaussianBlur stdDeviation="7" result="blur"/>
      <feMerge><feMergeNode in="blur"/><feMergeNode in="SourceGraphic"/></feMerge>
    </filter>
  </defs>
  <rect width="1280" height="320" fill="url(#bg-wz)"/>
  <rect width="1280" height="320" fill="url(#dots-wz)"/>
  <rect x="0" y="0" width="4" height="320" fill="url(#accent-wz)"/>
  <g opacity="0.22" transform="translate(900, 50)">
    <rect x="0"   y="120" width="40" height="100" rx="4" fill="#06b6d4"/>
    <rect x="60"  y="80"  width="40" height="140" rx="4" fill="#22c55e"/>
    <rect x="120" y="50"  width="40" height="170" rx="4" fill="#06b6d4"/>
    <rect x="180" y="90"  width="40" height="130" rx="4" fill="#22c55e"/>
    <rect x="240" y="30"  width="40" height="190" rx="4" fill="#06b6d4"/>
    <text x="20"  y="240" font-family="monospace" font-size="11" fill="#06b6d4" text-anchor="middle">ATS</text>
    <text x="80"  y="240" font-family="monospace" font-size="11" fill="#06b6d4" text-anchor="middle">Skills</text>
    <text x="140" y="240" font-family="monospace" font-size="11" fill="#06b6d4" text-anchor="middle">Score</text>
    <text x="200" y="240" font-family="monospace" font-size="11" fill="#06b6d4" text-anchor="middle">Fit</text>
    <text x="260" y="240" font-family="monospace" font-size="11" fill="#06b6d4" text-anchor="middle">Cover</text>
  </g>
  <g transform="translate(80, 96)" filter="url(#glow-wz)">
    <rect x="8" y="36" width="104" height="76" rx="10" fill="#071520" stroke="url(#accent-wz)" stroke-width="3"/>
    <path d="M38 36 v-16 a22 22 0 0 1 44 0 v16" fill="none" stroke="url(#accent-wz)" stroke-width="3"/>
    <line x1="8" y1="74" x2="112" y2="74" stroke="#06b6d4" stroke-width="1.5" opacity="0.5"/>
    <rect x="48" y="66" width="24" height="16" rx="4" fill="#06b6d4" opacity="0.4"/>
    <circle cx="96" cy="24" r="12" fill="#22c55e" opacity="0.25"/>
    <text x="90" y="29" font-family="sans-serif" font-size="16" fill="#22c55e">✦</text>
  </g>
  <text x="222" y="106" font-family="Georgia,serif" font-size="20" fill="#06b6d4" opacity="0.65"
        letter-spacing="3">وظيفو — Career AI</text>
  <text x="222" y="175" font-family="'SF Mono',Consolas,monospace" font-size="76" font-weight="700"
        letter-spacing="-2" fill="#e0f9ff">Waz</text>
  <text x="388" y="175" font-family="'SF Mono',Consolas,monospace" font-size="76" font-weight="700"
        letter-spacing="-2" fill="url(#accent-wz)">ivo</text>
  <text x="224" y="212" font-family="sans-serif" font-size="19" fill="#06b6d4"
        letter-spacing="2" opacity="0.85">AI RESUME · ATS · JOB DISCOVERY</text>
  <rect x="222" y="228" width="460" height="2" fill="url(#accent-wz)" opacity="0.4"/>
  <rect x="222" y="248" width="110" height="28" rx="14" fill="#06b6d4" opacity="0.18"/>
  <text x="277" y="267" font-family="sans-serif" font-size="13" fill="#06b6d4" text-anchor="middle">Resume Scoring</text>
  <rect x="344" y="248" width="100" height="28" rx="14" fill="#06b6d4" opacity="0.18"/>
  <text x="394" y="267" font-family="sans-serif" font-size="13" fill="#06b6d4" text-anchor="middle">ATS Rewrite</text>
  <rect x="456" y="248" width="130" height="28" rx="14" fill="#06b6d4" opacity="0.18"/>
  <text x="521" y="267" font-family="sans-serif" font-size="13" fill="#06b6d4" text-anchor="middle">Groq · Next.js</text>
</svg>